# AST/ASF file generated using VICON BodyLanguage
# -----------------------------------------------
:version 1.10
:name VICON
:units
  mass 1.0
  length 0.45
  angle deg
:documentation
   .ast/.asf automatically generated from VICON data using
   VICON BodyBuilder and BodyLanguage model FoxedUp or BRILLIANT.MOD
:root
   order TX TY TZ RX RY RZ
   axis XYZ
   position 0 0 0  
   orientation 0 0 0 
:bonedata
  begin
     id 1 
     name lhipjoint
     direction 0.584852 -0.759097 0.285867 
     length 2.43633 
     axis 0 0 0  XYZ
  end
  begin
     id 2 
     name lfemur
     direction 0.34202 -0.939693 0  
     length 7.14704  
     axis 0 0 20  XYZ
    dof rx ry rz
    limits (-160.0 20.0)
           (-70.0 70.0)
           (-60.0 70.0)
  end
  begin
     id 3 
     name ltibia
     direction 0.342022 -0.939692 0   
     length 7.68483   
     axis 0 0 20   XYZ
    dof rx
    limits (-10.0 170.0)
  end
  begin
     id 4 
     name lfoot
     direction 0.0999605 -0.274639 0.956337   
     length 2.40452   
     axis -90 7.62852e-016 20   XYZ
    dof rx rz
    limits (-45.0 90.0)
           (-70.0 20.0)
  end
  begin
     id 5 
     name ltoes
     direction 1.53468e-011 -4.21881e-011 1   
     length 1.19837   
     axis -90 7.62852e-016 20   XYZ
    dof rx
    limits (-90.0 20.0)
  end
  begin
     id 6 
     name rhipjoint
     direction -0.569886 -0.769002 0.289597   
     length 2.40495  
     axis 0 0 0  XYZ 
  end
  begin
     id 7 
     name rfemur
     direction -0.34202 -0.939693 0   
     length 7.45086   
     axis 0 0 -20   XYZ
    dof rx ry rz
    limits (-160.0 20.0)
           (-70.0 70.0)
           (-70.0 60.0)
  end
  begin
     id 8 
     name rtibia
     direction -0.34202 -0.939693 0   
     length 7.76831   
     axis 0 0 -20   XYZ
    dof rx
    limits (-10.0 170.0)
 end
 begin
     id 9 
     name rfoot
     direction -0.0798572 -0.219406 0.97236   
     length 2.35911  
     axis -90 -7.62852e-016 -20   XYZ
    dof rx rz
    limits (-45.0 90.0)
           (-20.0 70.0)
  end
  begin
     id 10 
     name rtoes
     direction -1.53469e-011 -4.21728e-011 1   
     length 1.18261   
     axis -90 -7.62852e-016 -20   XYZ
    dof rx
    limits (-90.0 20.0)
  end
  begin
     id 11 
     name lowerback
     direction 0.0242088 0.999437 0.0232389   
     length 2.1561   
     axis 0 0 0   XYZ
    dof rx ry rz
    limits (-20.0 45.0)
           (-30.0 30.0)
           (-30.0 30.0)
  end
  begin
     id 12 
     name upperback
     direction -0.0356893 0.999013 -0.0264323   
     length 2.14431   
     axis 0 0 0   XYZ
    dof rx ry rz
    limits (-20.0 45.0)
           (-30.0 30.0)
           (-30.0 30.0)
  end
  begin
     id 13 
     name thorax
     direction -0.0472163 0.998194 -0.0371284   
     length 2.16169   
     axis 0 0 0   XYZ
    dof rx ry rz
    limits (-20.0 45.0)
           (-30.0 30.0)
           (-30.0 30.0)
  end
  begin
     id 14 
     name lowerneck
     direction 0.00863244 0.999921 0.00911972   
     length 1.58651   
     axis 0 0 0   XYZ
    dof rx ry rz
    limits (-20.0 45.0)
           (-30.0 30.0)
           (-30.0 30.0)
  end
  begin
     id 15 
     name upperneck
     direction 0.149523 0.979068 -0.138086   
     length 1.57486   
     axis 0 0 0   XYZ
    dof rx ry rz
    limits (-20.0 45.0)
           (-30.0 30.0)
           (-30.0 30.0)
  end
  begin
     id 16
     name head
     direction 0.0445219 0.997708 -0.0509576  
     length 1.6019  
     axis 0 0 0   XYZ
    dof rx ry rz
    limits (-20.0 45.0)
           (-30.0 30.0)
           (-30.0 30.0)
  end
  begin
     id 17 
     name lclavicle
     direction 0.911271 0.381667 -0.154644  
     length 3.80848  
     axis 0 0 0   XYZ
    dof ry rz
    limits (-20.0 10.0)
           (0.0 20.0)
  end
  begin
     id 18 
     name lhumerus
     direction 1 -4.49003e-011 2.1308e-027   
     length 5.19069   
     axis 180 -30 -90   XYZ
    dof rx ry rz
    limits (-60.0 90.0)
           (-90.0 90.0)
           (-90.0 90.0)
  end
  begin
     id 19
     name lradius
     direction 1 -4.48914e-011 4.01554e-027   
     length 3.30016   
     axis 180 -30 -90   XYZ
    dof rx
    limits (-10.0 170.0)
  end
  begin
     id 20
     name lwrist
     direction 1 -4.49003e-011 1.1934e-026   
     length 1.65008   
     axis -8.46377e-015 90 90   XYZ
    dof ry
    limits (-180.0 0.0)
 end
  begin
     id 21 
     name lhand
     direction 1 -4.49034e-011 2.38659e-026   
     length 0.707698   
     axis -1.52313e-014 90 90   XYZ
    dof rx rz
    limits (-90.0 90.0)
           (-45.0 45.0)
  end
  begin
     id 22 
     name lfingers
     direction 1 -4.48691e-011 4.77775e-026   
     length 0.570564   
     axis -3.04623e-014 90 90   XYZ
    dof rx
    limits (0.0 90.0)
  end
  begin
     id 23
     name lthumb
     direction 0.707107 -6.34832e-011 0.707107   
     length 0.819219   
     axis -90 45 -1.62303e-014   XYZ
    dof rx rz
    limits (-45.0 45.0)
           (-45.0 45.0)
  end
  begin
     id 24 
     name rclavicle
     direction -0.815579 0.573708 -0.0754329   
     length 3.54371  
     axis 0 0 0   XYZ 
    dof ry rz
    limits (-10.0 20.0)
           (-20.0 0.0)
  end
  begin
     id 25 
     name rhumerus
     direction -1 -4.48956e-011 3.05351e-028  
     length 5.23924   
     axis 180 30 90   XYZ
    dof rx ry rz
    limits (-90.0 60.0)
           (-90.0 90.0)
           (-90.0 90.0)
  end
  begin
     id 26 
     name rradius
     direction -1 -4.49013e-011 3.53849e-027   
     length 3.32953   
     axis 180 30 90   XYZ
    dof rx
    limits (-10.0 170.0)
  end
  begin
     id 27 
     name rwrist
     direction -1 -4.48901e-011 1.19374e-026   
     length 1.66477   
     axis -8.46377e-015 -90 -90   XYZ
    dof ry
    limits (-180.0 0.0)
  end
  begin
     id 28
     name rhand
     direction -1 -4.48877e-011 2.38764e-026   
     length 0.607414   
     axis -1.52313e-014 -90 -90   XYZ
    dof rx rz
    limits (-90.0 90.0)
           (-45.0 45.0)
  end
  begin
     id 29
     name rfingers
     direction -1 -4.48882e-011 4.77521e-026   
     length 0.489712   
     axis -3.04623e-014 -90 -90   XYZ
    dof rx
    limits (0.0 90.0)
  end
  begin
     id 30
     name rthumb
     direction -0.707107 -6.34974e-011 0.707107   
     length 0.703132   
     axis -90 -45 1.62303e-014   XYZ
    dof rx rz
    limits (-45.0 45.0)
           (-45.0 45.0)
  end
:hierarchy
  begin
    root lhipjoint rhipjoint lowerback
    lhipjoint lfemur
    lfemur ltibia
    ltibia lfoot
    lfoot ltoes
    rhipjoint rfemur
    rfemur rtibia
    rtibia rfoot
    rfoot rtoes
    lowerback upperback
    upperback thorax
    thorax lowerneck lclavicle rclavicle
    lowerneck upperneck
    upperneck head
    lclavicle lhumerus
    lhumerus lradius
    lradius lwrist
    lwrist lhand lthumb
    lhand lfingers
    rclavicle rhumerus
    rhumerus rradius
    rradius rwrist
    rwrist rhand rthumb
    rhand rfingers
  end

#!OML:ASF E:\VariousWalksJay\Project 1\Capture day 1\Session 1\Actor2.ASF
:FULLY-SPECIFIED
:DEGREES
1
root 28.4479 14.6367 -28.4977 19.7183 -45.6005 -2.86454
lowerback 33.933 -2.4353 3.32325
upperback 15.021 -2.9555 -1.32963
thorax -0.986735 -1.55925 -2.23004
lowerneck -5.4431 3.44929 2.75813
upperneck -22.7165 4.28085 -0.912628
head -5.92501 1.74048 -0.879528
rclavicle 4.77083e-015 -4.25399e-014
rhumerus -18.9127 25.3866 -85.2445
rradius 104.102
rwrist 7.57056
rhand -5.82538 -11.1462
rfingers 7.12502
rthumb 20.0002 -40.1369
lclavicle 4.77083e-015 -4.25399e-014
lhumerus 51.8191 -13.0799 47.8906
lradius 79.484
lwrist 47.2893
lhand -34.9758 9.66465
lfingers 7.12502
lthumb -8.12144 39.4886
rfemur -68.5938 3.27561 24.1927
rtibia 80.2293
rfoot -28.3619 -12.5664
rtoes -10.5225
lfemur -70.3914 12.3364 -28.4955
ltibia 78.3957
lfoot -26.5593 8.80644
ltoes -8.14164
2
root 28.4759 14.7329 -28.4566 16.3376 -44.6238 -2.05257
lowerback 38.0065 -3.33752 4.19846
upperback 15.1311 -3.6858 -1.57333
thorax -2.15205 -1.88923 -2.55963
lowerneck -5.3753 3.37909 2.72122
upperneck -22.8307 4.1718 -0.991596
head -5.97313 1.69288 -0.897713
rclavicle 1.82882e-014 -2.46493e-014
rhumerus -18.7469 25.2564 -84.9371
rradius 104.401
rwrist 7.44147
rhand -8.87374 -10.4827
rfingers 7.12502
rthumb 17.068 -39.7529
lclavicle 1.82882e-014 -2.46493e-014
lhumerus 52.0843 -13.0125 48.7633
lradius 79.3215
lwrist 46.5812
lhand -34.317 9.65308
lfingers 7.12502
lthumb -7.48552 39.5006
rfemur -64.8001 1.70747 23.8601
rtibia 79.5737
rfoot -28.8917 -12.179
rtoes -10.1158
lfemur -66.2126 11.4702 -28.1895
ltibia 77.2908
lfoot -26.6504 9.01373
ltoes -8.1288
3
root 28.5088 14.7433 -28.441 15.7443 -44.1389 -1.84912
lowerback 38.82 -4.08305 5.13358
upperback 15.2352 -4.26881 -2.06096
thorax -2.40466 -2.10669 -3.31555
lowerneck -5.1692 3.40795 2.90138
upperneck -23.0438 4.25037 -0.848011
head -6.07478 1.70224 -0.891291
rclavicle 1.59028e-014 -1.06946e-013
rhumerus -18.5169 25.2641 -85.2947
rradius 104.595
rwrist 7.38068
rhand -11.9216 -9.90699
rfingers 7.12502
rthumb 14.1326 -39.4063
lclavicle 1.59028e-014 -1.06946e-013
lhumerus 52.3876 -12.8151 47.9802
lradius 79.3635
lwrist 46.9288
lhand -34.7279 9.68891
lfingers 7.12502
lthumb -7.88216 39.522
rfemur -64.2839 0.989399 23.7504
rtibia 79.4854
rfoot -28.8821 -12.0715
rtoes -10.5528
lfemur -65.5699 10.6899 -28.1444
ltibia 77.0894
lfoot -26.5679 9.36183
ltoes -8.07345
4
root 28.5187 14.7317 -28.4509 15.9161 -44.1778 -1.9199
lowerback 39.0861 -3.88117 4.8489
upperback 15.2296 -4.09266 -1.74731
thorax -2.43929 -2.05213 -2.89243
lowerneck -5.18206 3.37905 2.8202
upperneck -23.1041 4.15302 -1.14554
head -6.0871 1.68028 -0.969744
rclavicle 3.97569e-015 -3.73715e-014
rhumerus -18.1957 25.3667 -84.642
rradius 104.829
rwrist 7.14323
rhand -14.9876 -9.27905
rfingers 7.12502
rthumb 11.1767 -38.9614
lclavicle 3.97569e-015 -3.73715e-014
lhumerus 52.6148 -12.592 48.4221
lradius 79.3059
lwrist 46.8633
lhand -34.7558 9.87071
lfingers 7.12502
lthumb -7.90909 39.7028
rfemur -64.5182 1.11181 23.7752
rtibia 79.4476
rfoot -28.7599 -12.1291
rtoes -10.5168
lfemur -65.8023 10.643 -28.1113
ltibia 76.9943
lfoot -26.3881 9.41978
ltoes -7.94157
5
root 28.5255 14.7101 -28.4771 16.4154 -44.1897 -1.90187
lowerback 38.8189 -3.74001 4.64375
upperback 15.2253 -3.99642 -1.67812
thorax -2.34329 -2.01485 -2.76021
lowerneck -5.12548 3.35812 2.82472
upperneck -23.1743 4.12564 -1.154
head -6.11926 1.66575 -0.974266
rclavicle -3.97569e-015 3.65764e-014
rhumerus -18.0037 25.3668 -84.5172
rradius 105.034
rwrist 7.09504
rhand -18.1744 -8.69547
rfingers 7.12502
rthumb 8.10198 -38.5202
lclavicle -3.97569e-015 3.65764e-014
lhumerus 52.8806 -12.4658 48.4701
lradius 79.1934
lwrist 46.8799
lhand -34.7636 9.77243
lfingers 7.12502
lthumb -7.91661 39.6042
rfemur -65.3089 1.33478 23.7545
rtibia 79.5694
rfoot -28.6443 -12.2696
rtoes -10.3617
lfemur -66.6096 10.5926 -28.2105
ltibia 77.0842
lfoot -26.1953 9.44287
ltoes -7.9855
